<svg width="64" height="64" viewBox="0 0 64 64" fill="none" xmlns="http://www.w3.org/2000/svg">
  <!-- Rocket Body -->
  <path d="M32 4L24 20L24 44C24 48.4183 27.5817 52 32 52C36.4183 52 40 48.4183 40 44L40 20L32 4Z" fill="url(#gradient1)"/>
  
  <!-- Window -->
  <circle cx="32" cy="28" r="6" fill="#1976D2" opacity="0.8"/>
  <circle cx="32" cy="28" r="4" fill="#42A5F5"/>
  
  <!-- Left Fin -->
  <path d="M24 36L16 48L24 44L24 36Z" fill="url(#gradient2)"/>
  
  <!-- Right Fin -->
  <path d="M40 36L48 48L40 44L40 36Z" fill="url(#gradient2)"/>
  
  <!-- Flame 1 -->
  <path d="M28 52L26 60Q28 58 30 60L28 52Z" fill="url(#flame1)"/>
  
  <!-- Flame 2 -->
  <path d="M32 52L30 62Q32 59 34 62L32 52Z" fill="url(#flame2)"/>
  
  <!-- Flame 3 -->
  <path d="M36 52L34 60Q36 58 38 60L36 52Z" fill="url(#flame1)"/>
  
  <!-- Gradients -->
  <defs>
    <linearGradient id="gradient1" x1="32" y1="4" x2="32" y2="52" gradientUnits="userSpaceOnUse">
      <stop offset="0%" stop-color="#FFFFFF"/>
      <stop offset="100%" stop-color="#E0E0E0"/>
    </linearGradient>
    
    <linearGradient id="gradient2" x1="24" y1="36" x2="24" y2="48" gradientUnits="userSpaceOnUse">
      <stop offset="0%" stop-color="#FF6F00"/>
      <stop offset="100%" stop-color="#E65100"/>
    </linearGradient>
    
    <linearGradient id="flame1" x1="28" y1="52" x2="30" y2="60" gradientUnits="userSpaceOnUse">
      <stop offset="0%" stop-color="#FFB74D"/>
      <stop offset="100%" stop-color="#FF6F00"/>
    </linearGradient>
    
    <linearGradient id="flame2" x1="32" y1="52" x2="32" y2="62" gradientUnits="userSpaceOnUse">
      <stop offset="0%" stop-color="#FFA726"/>
      <stop offset="50%" stop-color="#FF8F00"/>
      <stop offset="100%" stop-color="#FF6F00"/>
    </linearGradient>
    
    <filter id="glow">
      <feGaussianBlur stdDeviation="2" result="coloredBlur"/>
      <feMerge>
        <feMergeNode in="coloredBlur"/>
        <feMergeNode in="SourceGraphic"/>
      </feMerge>
    </filter>
  </defs>
</svg>
